<svg xmlns="http://www.w3.org/2000/svg" width="374" height="34" viewBox="0 0 374 34">
    <g fill="none" fill-rule="evenodd">
        <g fill-rule="nonzero">
            <path fill="#FFF" d="M21.013 19.235a3 3 0 0 0 0-5.065L9.608 6.927A3 3 0 0 0 5 9.459v14.487a3 3 0 0 0 4.608 2.532l11.405-7.243zm2.68 4.22L12.29 30.7A8 8 0 0 1 0 23.946V9.459a8 8 0 0 1 12.29-6.753L23.693 9.95a8 8 0 0 1 0 13.506zm-2.68-4.22a3 3 0 0 0 0-5.065L9.608 6.927A3 3 0 0 0 5 9.459v14.487a3 3 0 0 0 4.608 2.532l11.405-7.243zm2.68 4.22L12.29 30.7A8 8 0 0 1 0 23.946V9.459a8 8 0 0 1 12.29-6.753L23.693 9.95a8 8 0 0 1 0 13.506zm-2.68-4.22a3 3 0 0 0 0-5.065L9.608 6.927A3 3 0 0 0 5 9.459v14.487a3 3 0 0 0 4.608 2.532l11.405-7.243zm2.68 4.22L12.29 30.7A8 8 0 0 1 0 23.946V9.459a8 8 0 0 1 12.29-6.753L23.693 9.95a8 8 0 0 1 0 13.506z"/>
            <path fill="#4C80F1" d="M21.013 19.235L9.608 26.478A3 3 0 0 1 5 23.946V9.459a3 3 0 0 1 4.608-2.532l11.405 7.243a3 3 0 0 1 0 5.065zm0 0L9.608 26.478A3 3 0 0 1 5 23.946V9.459a3 3 0 0 1 4.608-2.532l11.405 7.243a3 3 0 0 1 0 5.065zm0 0L9.608 26.478A3 3 0 0 1 5 23.946V9.459a3 3 0 0 1 4.608-2.532l11.405 7.243a3 3 0 0 1 0 5.065z"/>
        </g>
        <path fill="#FFF" d="M49.241 7.798v19.18c-.585.496-1.366.91-2.345 1.245-.98.334-2.168.501-3.567.501s-2.587-.303-3.566-.91c-1.106-.656-1.66-1.584-1.66-2.785V5.85c.585-.495 1.367-.91 2.347-1.244.978-.334 2.16-.502 3.547-.502 1.385 0 2.587.298 3.604.892 1.094.68 1.64 1.615 1.64 2.803"/>
        <path fill="#FFF" fill-rule="nonzero" d="M43.986 8.67c-.556 0-1.029.038-1.415.107v15.888c.198.05.45.08.77.08.565 0 1.044-.04 1.433-.108V8.75a3.362 3.362 0 0 0-.788-.08zM34 25.365V4.114l1.473-1.296c1.01-.888 2.237-1.564 3.664-2.07C40.577.238 42.193 0 43.986 0c2.088 0 4.012.494 5.692 1.514l.104.065c2.267 1.467 3.563 3.768 3.563 6.47v21.25l-1.473 1.297c-1.01.888-2.236 1.563-3.663 2.07-1.442.511-3.062.748-4.869.748-2.116 0-4.052-.51-5.715-1.57C35.319 30.408 34 28.094 34 25.366z"/>
        <path fill="#FFF" d="M50.414 24.958V6.368c0-.644.524-1.18 1.573-1.606 1.05-.427 2.284-.64 3.704-.64.803 0 1.56.096 2.27.288.71.191 1.254.436 1.63.732.516.644.987 1.3 1.414 1.967.427.668 1.388 2.227 2.884 4.676a.605.605 0 0 0 .377-.13c.113-.087.17-.22.17-.4 0-.178-.158-.528-.472-1.047l-2.035-3.451v-1.02c.64-.52 1.42-.922 2.337-1.207a9.56 9.56 0 0 1 2.845-.427c1.596 0 2.884.285 3.864.854 1.143.68 1.715 1.744 1.715 3.191v17.57c0 1.064-.516 1.837-1.546 2.32-.88.433-2.054.65-3.524.65-.817 0-1.611-.088-2.384-.26-.773-.174-1.379-.396-1.819-.669a42.695 42.695 0 0 1-2.657-3.784l-1.922-3.155c-.365.05-.547.241-.547.576 0 .21.182.612.547 1.206l2.356 3.747v.984c-1.458.927-3.1 1.391-4.928 1.391-1.828 0-3.26-.328-4.297-.983-1.037-.656-1.555-1.583-1.555-2.783"/>
        <path fill="#FFF" fill-rule="nonzero" d="M54.91 24.61a3.449 3.449 0 0 1-.033-.008l.034.06v-.052zm3.388-7.765l2.814-.391 3.333 5.598c.556.903 1.111 1.737 1.664 2.503.46.106.921.157 1.404.157.257 0 .483-.009.68-.025V13.698a4.684 4.684 0 0 1-1.333 1.643 4.864 4.864 0 0 1-3.013 1.045h-2.432l-1.253-2.1a369.668 369.668 0 0 0-2.785-4.623c-.182-.291-.375-.58-.58-.869a4.193 4.193 0 0 0-1.003-.111c-.322 0-.616.016-.883.047v10.163c.762-1.1 1.972-1.851 3.387-2.048zm9.895-8.072c-.096-.022-.2-.04-.313-.056.117.218.221.428.313.635v-.579zm-.577-.52l-.687.412h.076l.635-.372-.01-.019a16.667 16.667 0 0 0-.014-.022zm-3.94-2.28l-1.187.694.271.332h3.462V5.973h-2.546zm-2.93 21.004l-.18-.283H56.9v.989h2.715l1.132-.706zm-4.387 6.437c-2.555 0-4.75-.514-6.545-1.676-2.246-1.453-3.504-3.757-3.504-6.442V6.608c0-1.494.59-2.85 1.593-3.897.718-.75 1.591-1.296 2.611-1.72 1.584-.66 3.35-.972 5.28-.972 1.166 0 2.292.146 3.369.443a9.682 9.682 0 0 1 2.1.831c.527-.258 1.082-.48 1.663-.664A13.464 13.464 0 0 1 67.013 0c2.281 0 4.288.454 5.98 1.458 2.49 1.517 3.8 4.01 3.8 6.94V26.06c0 2.757-1.47 5.03-3.932 6.225-1.525.76-3.305 1.092-5.348 1.092-1.12 0-2.22-.123-3.295-.37-.852-.194-1.621-.448-2.317-.782-1.712.791-3.574 1.189-5.542 1.189z"/>
        <path fill="#FFF" d="M83.81 21.964c.41-.075.613-.284.613-.628 0-.344-.108-.731-.325-1.162a4.323 4.323 0 0 0-.955-1.228c-1.1-.999-2.59-1.499-4.47-1.499a7.11 7.11 0 0 0-2.596.469c-.854-.437-1.534-1.13-2.04-2.08a6.425 6.425 0 0 1-.761-3.074c0-2.873 1.187-5.091 3.561-6.653 2.04-1.337 4.556-2.006 7.549-2.006 2.226 0 4.099.241 5.62.722 1.52.481 2.764 1.096 3.728 1.846.284.825.427 1.68.427 2.568 0 .887-.118 1.693-.353 2.417-.235.725-.575 1.306-1.02 1.743-.42-.312-1.181-.63-2.281-.956-1.1-.324-2.103-.487-3.005-.487-.903 0-1.506.056-1.808.169-.304.112-.455.287-.455.524 0 .113.019.22.056.32.432-.113.989-.17 1.67-.17 2.41 0 4.376.575 5.897 1.724 1.793 1.375 2.69 3.437 2.69 6.185 0 2.424-.971 4.436-2.912 6.035-2.103 1.712-4.928 2.567-8.477 2.567-1.954 0-3.647-.147-5.082-.44a15.121 15.121 0 0 1-4.192-1.546c-.927-1.362-1.39-2.746-1.39-4.151 0-1.406.475-2.57 1.428-3.496.952-.924 2.123-1.387 3.514-1.387 1.391 0 2.53.288 3.413.863.884.574 1.536 1.511 1.957 2.81"/>
        <path fill="#FFF" fill-rule="nonzero" d="M90.252 23.263c.948-.769 1.324-1.535 1.324-2.614 0-1.424-.329-2.173-.98-2.668-.67-.491-1.628-.787-2.976-.83.238.33.45.673.635 1.033.503.983.794 2.003.794 3.084 0 1.248-.43 2.324-1.141 3.15.939-.266 1.714-.655 2.344-1.155zm-9.048-10.554c0-1.843.963-3.264 2.34-4.089-1.676.13-3.024.553-4.093 1.239-1.158.747-1.613 1.579-1.613 2.961 0 .132.01.255.03.373a13.515 13.515 0 0 1 3.375.146 5.186 5.186 0 0 1-.039-.63zm10.234-2.49l1.267-1.63c-.21-.068-.428-.134-.655-.2-.499-.144-.99-.265-1.473-.362l-.588.203a3.317 3.317 0 0 1 .185 1.278c.52.224.94.463 1.264.71zm-11.456 13a2.055 2.055 0 0 0-.234-.517 1.14 1.14 0 0 0-.191-.062 3.658 3.658 0 0 0-.857-.084c-.295 0-.394.038-.532.17-.095.09-.106.117-.106.351 0 .251.05.516.164.806a10.653 10.653 0 0 0 2.188.644l-.432-1.308zm-9.525-5.334a10.482 10.482 0 0 1-1.285-5.065c0-4.28 1.933-7.818 5.558-10.154C77.526.87 80.874 0 84.679 0c2.647 0 4.957.29 6.947.907 1.988.616 3.691 1.442 5.096 2.512l1.025.78.425 1.209c.446 1.268.67 2.588.67 3.94 0 1.312-.185 2.554-.57 3.72-.046.14-.096.278-.148.414 1.412 1.973 2.117 4.41 2.117 7.167 0 3.694-1.574 6.89-4.523 9.27-2.968 2.367-6.766 3.495-11.263 3.495-2.235 0-4.222-.169-5.97-.52a19.767 19.767 0 0 1-5.406-1.947l-.925-.492-.595-.856c-1.41-2.03-2.163-4.228-2.163-6.522 0-1.739.446-3.353 1.313-4.754a10.269 10.269 0 0 1-.252-.438z"/>
        <path fill="#FFF" d="M105.133 4.69h10.782c.36.596.629 1.244.803 1.945.174.702.262 1.331.262 1.89 0 1.253-.246 2.197-.738 2.83-.493.633-1.18.949-2.065.949h-7.53c-.461 0-.692.18-.692.54v.149c0 .074.012.124.037.149h8.932c.224.385.418.869.58 1.452.15.633.224 1.198.224 1.694 0 1.477-.274 2.631-.822 3.463h-4.055c-1.894 0-3.177.071-3.85.214-.672.143-1.09.264-1.251.363-.163.112-.243.255-.243.428 0 .174.087.31.261.41.648-.211 1.327-.36 2.037-.447.934-.087 1.95-.13 3.046-.13h5.25c.76 1.067 1.14 2.352 1.14 3.853 0 .845-.106 1.651-.317 2.42-.212.77-.53 1.39-.953 1.862h-13.996c-1.545 0-2.784-.372-3.719-1.117-1.021-.794-1.532-1.96-1.532-3.5V6.402c0-.595.685-1.03 2.056-1.303 1.37-.272 3.488-.41 6.353-.41"/>
        <path fill="#FFF" fill-rule="nonzero" d="M112.937 9.273l.01-.02c.04-.089.1-.187.178-.288.356-.458.949-.73 1.373-.73h-1.61c.046.232.066.416.066.547 0 .221-.013.386-.03.491h.013zm-.027.068a.514.514 0 0 1 .002-.007l-.002.007zm-11.575.071v15.021c0 .072.002.13.005.175.02.008.043.015.07.023.195.059.472.096.839.096h.895a4.743 4.743 0 0 1-1.707-3.66c0-1.653.822-3.105 2.121-4.001l.096-.066.038-.024-.478-.472a4.362 4.362 0 0 1-1.188-2.092 4.627 4.627 0 0 1-.139-1.142v-.15c0-1.443.603-2.856 1.843-3.825-.926.019-1.728.06-2.395.117zm13.894 8.35v-2.048h-3.7c.027.075.062.182.101.321l3.618-.997v-.024l-3.66.86c.078.326.11.566.11.705 0 .422-.035.75-.09.983a1.064 1.064 0 0 1-.045.152l.024-.041.137.09h3.505zm-6.596 7.579l-.076-.614h-.11l.06.627a22.054 22.054 0 0 1 .126-.013zm7.665-.099v-.515h-3.081a4.931 4.931 0 0 1-.02.515h3.101zm-23.677-.809V6.65c0-1.939 1.027-3.485 2.533-4.44.873-.554 1.863-.895 3.033-1.128 1.719-.342 4.094-.496 7.232-.496H118.7l1.271 2.099c.59.974 1.026 2.03 1.306 3.155.255 1.028.39 2.004.39 2.942 0 2.068-.453 3.874-1.54 5.352.186.85.284 1.663.284 2.445 0 .766-.054 1.498-.166 2.194 1.13 1.75 1.685 3.784 1.685 5.997 0 1.23-.157 2.427-.474 3.58-.382 1.387-1.007 2.609-1.911 3.616l-1.3 1.448H102.25c-2.472 0-4.668-.657-6.434-2.057-2.129-1.667-3.194-4.111-3.194-6.924z"/>
        <path fill="#FFF" d="M128.917 15.28c.05.037.194.055.432.055s.42-.092.545-.277c.125-.184.188-.485.188-.903v-.664c0-.443-.054-.76-.16-.95-.107-.19-.282-.286-.526-.286-.244 0-.41.025-.498.074a1.8 1.8 0 0 1 .019.313v2.637zm9.695 4.204l3.25 3.265c-.225 1.918-.842 3.393-1.85 4.426-1.009 1.033-2.403 1.55-4.18 1.55-1.341 0-2.506-.314-3.496-.942-1.265-.786-2.21-2.04-2.837-3.762l-.676-1.807c-.526-.012-1.19-.08-1.992-.203a.542.542 0 0 0-.15.406c0 .332.507.529 1.522.59l1.07 2.656v1.567c-1.44.996-3.287 1.494-5.542 1.494-1.616 0-2.906-.326-3.87-.977-.965-.652-1.447-1.599-1.447-2.84V7.386c0-.542.507-1.067 1.522-1.578 1.014-.51 2.342-.922 3.983-1.235 1.64-.314 3.282-.47 4.922-.47 3.758 0 6.695.756 8.813 2.268 2.229 1.586 3.344 3.817 3.344 6.694 0 1.648-.473 3.059-1.419 4.233A7.336 7.336 0 0 1 136 19.743c0 .393.241.59.723.59s1.112-.283 1.889-.849z"/>
        <path fill="#FFF" fill-rule="nonzero" d="M123.638 10.391l2.71-1.54c.929-.528 1.703-.644 2.654-.644 1.784 0 3.44.91 4.333 2.527.535.97.694 1.923.694 3.03v.668c0 1.193-.22 2.264-.918 3.305-.944 1.403-2.49 2.197-4.156 2.197-.291 0-.563-.014-.848-.05-.765-.1-1.414-.287-2.201-.878l-1.726-1.294V13.11l-.542-2.72zm4.868 2.203l2.587-.508a4.042 4.042 0 0 0-1.86-.756 2.16 2.16 0 0 0-.278-.022 3.744 3.744 0 0 0-3.074 1.645 3.254 3.254 0 0 0-.49 1.11c.057.242.156.512.325.818a3.798 3.798 0 0 0 3.286 1.952c.08 0 .189-.007.344-.03.403-.06.825-.185 1.319-.466l-.446-.772h-1.694l.964-1.267-.983-1.704zm8.626 12.314c1.278-.178 2.434-.763 3.633-1.646l-.205-.275-3.464-.396c-.1.86-.285 1.425-.506 1.766l.542.55zm-5.9-7.993l3.014-.962a2.96 2.96 0 0 0 1.486-1.03c.318-.4.475-.874.475-1.586 0-1.54-.463-2.478-1.54-3.253-1.283-.927-3.326-1.458-6.217-1.458-1.354 0-2.71.13-4.071.394-.777.15-1.434.32-1.966.5v11.135c.23-.492.55-.952.963-1.362l1.562-1.55 2.181.338c.625.097 1.106.147 1.415.154l2.698.063v-1.383zm-8.819 7.838v-.044a2.901 2.901 0 0 1-.023-.004l.023.048zm2.668 2.408a7.151 7.151 0 0 0 1.848.436h.622l.107-1.724-1.28-1.802c-.503.351-1.198.59-2.139.678l-.465.183 1.063 2.665h.026l3.142-1.234-.244-.344h-3.225v.895c.177.092.36.174.545.247zm20.885-5.622l-.238 2.04c-.325 2.804-1.301 5.164-3.021 6.947-1.874 1.94-4.403 2.888-7.299 2.888-1.999 0-3.855-.469-5.485-1.422-1.913.96-4.119 1.422-6.56 1.422-2.428 0-4.562-.545-6.317-1.744-2.166-1.48-3.322-3.774-3.322-6.413V7.617c0-1.475.604-2.759 1.57-3.77.634-.666 1.401-1.193 2.31-1.655 1.413-.72 3.112-1.252 5.115-1.639A30.14 30.14 0 0 1 128.45 0c4.591 0 8.397.99 11.323 3.105 3.369 2.423 5.125 5.978 5.125 10.232 0 2.053-.487 3.958-1.46 5.634l2.529 2.568zM127.9 19.025a.66.66 0 0 0-.006-.001h.006z"/>
        <path fill="#FFF" d="M157.29 14.08v12.917c-.574.49-1.339.9-2.298 1.231-.958.331-2.122.496-3.491.496-1.37 0-2.533-.3-3.492-.9-1.083-.65-1.624-1.568-1.624-2.757V13.234h-4.35c-.897-1.262-1.345-2.64-1.345-4.134 0-1.017.165-1.902.495-2.655.33-.754.737-1.339 1.223-1.755h19.306c.361.551.66 1.219.897 2.003.236.784.355 1.562.355 2.333 0 1.446-.324 2.508-.972 3.188-.647.68-1.518 1.02-2.614 1.02h-5.47a.684.684 0 0 0-.056.276c0 .22.13.367.392.44.273.087.859.13 1.755.13h1.288z"/>
        <path fill="#FFF" fill-rule="nonzero" d="M153.25 18.328a5.961 5.961 0 0 0 .103.03l1.158-4.006h-.005l-1.256 3.89v.086zm-2.24-1.395v7.798c.202.05.457.08.783.08.575 0 1.06-.04 1.457-.108v-6.375a5 5 0 0 1-2.24-1.395zm.328-7.735h7.61l-.001-.008h-13.651v.008h5.715v.756l.327-.756zm10.619 20.133l-1.497 1.286c-1.025.881-2.271 1.552-3.721 2.054-1.465.508-3.111.743-4.946.743-2.151 0-4.117-.505-5.807-1.558-2.343-1.425-3.683-3.722-3.683-6.43v-7.624h-2.282l-1.3-1.837c-1.407-1.99-2.135-4.237-2.135-6.632 0-1.582.273-3.049.852-4.377.574-1.317 1.35-2.436 2.365-3.31l1.23-1.06h23.387l1.286 1.973c.599.919 1.064 1.962 1.413 3.124.355 1.182.536 2.378.536 3.576 0 2.454-.638 4.559-2.151 6.154a7.502 7.502 0 0 1-3.547 2.101v11.817z"/>
        <path fill="#FFF" d="M180.5 22.75c.347 0 .52-.192.52-.575-2.731-1.819-4.817-4.051-6.256-6.698-1.44-2.647-2.246-5.566-2.42-8.758.557-.828 1.388-1.465 2.494-1.91a9.079 9.079 0 0 1 3.42-.668c1.545 0 2.873.303 3.985.909a57.436 57.436 0 0 1 1.706 5.343l-.909 4.008c-.05.185-.074.359-.074.52 0 .42.222.63.667.63.149-.47.495-1.892 1.038-4.267.136-.606.319-1.45.547-2.533.229-1.082.522-2.36.88-3.831 1.138-.544 2.435-.817 3.893-.817 1.767 0 3.176.43 4.227 1.29 1.05.86 1.575 2.1 1.575 3.72 0 2.375-.667 4.688-2.002 6.939-1.05 1.781-2.44 3.445-4.17 4.99v6.124c-1.026.63-1.947 1.048-2.762 1.252a10.58 10.58 0 0 1-2.577.306c-1.705 0-3.046-.322-4.022-.965-.976-.643-1.464-1.601-1.464-2.876v-3.265c.222.223.506.467.852.733.346.266.63.399.853.399"/>
        <path fill="#FFF" fill-rule="nonzero" d="M184.57 24.73c.168-.014.333-.033.492-.057v-1.845a5.08 5.08 0 0 1-.493 1.901zm.492-4.56v.002h.003l-.003-.002zm-6.481-6.508l.657-2.906c-.189-.66-.398-1.335-.627-2.026a6.517 6.517 0 0 0-.63-.029c-.468 0-.922.066-1.373.202a15.655 15.655 0 0 0 1.881 5.18c.026-.141.057-.281.092-.42zm11.271.47c.953-1.61 1.404-3.176 1.404-4.764a2.078 2.078 0 0 0-.038-.419c-.235-.164-.678-.285-1.463-.285-.1 0-.199.002-.294.006a92.89 92.89 0 0 0-.27 1.23c-.23 1.1-.418 1.967-.564 2.618-.58 2.538-.933 3.991-1.132 4.626l-.018.056a16.037 16.037 0 0 0 2.375-3.068zm1.355-5.22a.15.15 0 0 0-.002-.007l.002.007zm-8.467 15.714a1.934 1.934 0 0 1-.288-.09.572.572 0 0 1-.087-.043c.122.08.269.241.372.444.048.094.08.184.096.26.007.032.008.04.008.024v-.572a3.187 3.187 0 0 1-.1-.023zm-12.06-6.79c-1.756-3.234-2.738-6.797-2.946-10.64l-.079-1.447.807-1.203c1.065-1.59 2.596-2.766 4.475-3.524a13.405 13.405 0 0 1 5.044-.985c2.13 0 4.08.423 5.804 1.304l.2-.097C185.731.407 187.669 0 189.755 0c2.708 0 5.087.727 6.975 2.275 2.113 1.732 3.167 4.224 3.167 7.093 0 3.186-.889 6.271-2.61 9.177a24.604 24.604 0 0 1-3.584 4.663v6.73l-2.059 1.268c-1.378.85-2.693 1.447-3.985 1.77a14.9 14.9 0 0 1-3.633.438c-2.49 0-4.646-.518-6.41-1.683-2.228-1.469-3.416-3.807-3.416-6.51v-2.577a22.25 22.25 0 0 1-3.52-4.807z"/>
        <path fill="#FFF" d="M208.65 15.87c0-1.242-.056-2.095-.166-2.56-.111-.466-.314-.699-.61-.699a.755.755 0 0 0-.497.186c.024.224.061.522.11.894.05.372.074 1.167.074 2.383v1.21c0 .844-.018 1.459-.055 1.843-.037.385-.068.714-.092.987l-.037.447a.754.754 0 0 0 .498.186c.295 0 .498-.233.609-.698.11-.466.166-1.32.166-2.56v-1.62zm-.738 13.44c-2.19 0-4.197-.456-6.023-1.368-1.826-.912-3.299-2.308-4.417-4.189-1.12-1.88-1.679-4.229-1.679-7.046 0-4.083 1.218-7.273 3.652-9.569 2.165-2.023 4.95-3.035 8.356-3.035 3.701 0 6.631 1.158 8.79 3.473 2.158 2.314 3.237 5.358 3.237 9.131 0 4.195-1.157 7.397-3.468 9.606-2.103 1.999-4.92 2.997-8.448 2.997z"/>
        <path fill="#FFF" fill-rule="nonzero" d="M213.262 16.159v1.626c0 1.571-.072 2.687-.286 3.585-.206.865-.565 1.662-1.192 2.38a4.78 4.78 0 0 1-3.616 1.65 5.054 5.054 0 0 1-3.262-1.193l-1.72-1.443.181-2.246.038-.461.098-1.047c.02-.213.036-.712.036-1.43v-1.216c0-.568-.006-1.03-.017-1.378-.005-.155-.01-.282-.016-.378l-.004-.064a46.853 46.853 0 0 1-.123-.994l-.254-2.321 1.784-1.494a5.055 5.055 0 0 1 3.26-1.19 4.78 4.78 0 0 1 3.614 1.648c.627.718.986 1.516 1.193 2.383.214.896.286 2.012.286 3.583zm-5.094 1.07c.459 0 .908-.09 1.322-.257a3.539 3.539 0 0 0-1.322-.257c-.475 0-.94.09-1.37.257.43.167.895.258 1.37.258zm-.153 3.221l3.985.366.001-.015.002-.015-3.987-.338-.001.002zm-3.444-5.923a.179.179 0 0 0 0-.002v.002zm3.635 10.788c2.509 0 4.28-.627 5.54-1.821 1.395-1.33 2.143-3.398 2.143-6.494 0-2.73-.705-4.717-2.087-6.194-1.317-1.41-3.121-2.12-5.708-2.12-2.383 0-4.134.634-5.468 1.877-1.526 1.436-2.309 3.48-2.309 6.437 0 2.086.38 3.677 1.075 4.84.708 1.188 1.577 2.01 2.663 2.551 1.232.614 2.598.924 4.15.924zm0 8.685c-2.856 0-5.533-.606-7.978-1.825-2.592-1.291-4.688-3.274-6.233-5.862-1.559-2.613-2.305-5.74-2.305-9.313 0-5.245 1.669-9.607 5.06-12.796C199.76 1.397 203.618 0 208.094 0c4.867 0 8.963 1.614 11.991 4.854 2.965 3.171 4.432 7.299 4.432 12.146 0 5.33-1.58 9.694-4.848 12.809C216.703 32.62 212.804 34 208.206 34z"/>
        <path fill="#FFF" d="M237.174 4.122c1.49 0 2.782.4 3.876 1.198 1.093.799 1.64 1.935 1.64 3.409v10.246c0 3.121-.963 5.526-2.889 7.215-1.925 1.69-4.587 2.534-7.984 2.534-3.398 0-6.04-.83-7.929-2.488-1.925-1.658-2.888-4.078-2.888-7.26V5.835c1.466-1.155 3.161-1.733 5.087-1.733 1.615 0 2.895.421 3.839 1.263.943.842 1.416 2.116 1.416 3.824v10.744a.792.792 0 0 0 .475.147c.18 0 .31-.046.391-.138.08-.092.121-.267.121-.525V9.17c0-.774-.037-1.388-.112-1.843a4.868 4.868 0 0 0-.447-1.363c1.491-1.229 3.292-1.843 5.404-1.843"/>
        <path fill="#FFF" fill-rule="nonzero" d="M237.491 8.64c-.184 0-.36.007-.53.022.008.24.011.49.011.752v10.318c0 1.205-.246 2.278-1.185 3.354-1.011 1.154-2.34 1.624-3.677 1.624a5.163 5.163 0 0 1-3.036-.974l-1.79-1.29V9.431c0-.318-.027-.547-.066-.694a1.006 1.006 0 0 0-.055-.02c-.179-.058-.445-.097-.809-.097-.27 0-.522.02-.762.062v10.603c0 2.03.492 3.27 1.409 4.062 1.06.932 2.689 1.445 5.109 1.445 2.417 0 4.064-.524 5.136-1.466.944-.83 1.438-2.068 1.438-4.04V8.967c-.307-.234-.672-.329-1.193-.329zm0-8.621c2.405 0 4.61.683 6.477 2.05 2.239 1.64 3.411 4.083 3.411 6.9v10.317c0 4.312-1.44 7.92-4.363 10.49-2.798 2.46-6.498 3.638-10.906 3.638-4.397 0-8.072-1.154-10.836-3.58-2.94-2.547-4.377-6.176-4.377-10.548V3.978l1.638-1.295C220.783.908 223.443 0 226.355 0c1.973 0 3.774.43 5.312 1.324C233.426.455 235.386.02 237.49.02z"/>
        <path fill="#FFF" d="M254.951 15.28c.05.037.194.055.432.055s.42-.092.545-.277c.125-.184.188-.485.188-.903v-.664c0-.443-.053-.76-.16-.95-.106-.19-.281-.286-.526-.286-.244 0-.41.025-.498.074a1.8 1.8 0 0 1 .02.313v2.637zm9.695 4.204l3.25 3.265c-.225 1.918-.842 3.393-1.85 4.426-1.008 1.033-2.402 1.55-4.18 1.55-1.34 0-2.506-.314-3.495-.942-1.266-.786-2.211-2.04-2.837-3.762l-.677-1.807c-.526-.012-1.19-.08-1.991-.203a.542.542 0 0 0-.15.406c0 .332.507.529 1.521.59l1.071 2.656v1.567c-1.44.996-3.288 1.494-5.542 1.494-1.616 0-2.907-.326-3.87-.977-.965-.652-1.448-1.599-1.448-2.84V7.386c0-.542.508-1.067 1.522-1.578 1.015-.51 2.342-.922 3.984-1.235 1.64-.314 3.281-.47 4.922-.47 3.758 0 6.695.756 8.812 2.268 2.23 1.586 3.344 3.817 3.344 6.694 0 1.648-.473 3.059-1.418 4.233a7.336 7.336 0 0 1-3.58 2.444c0 .393.242.59.724.59s1.111-.283 1.888-.849z"/>
        <path fill="#FFF" fill-rule="nonzero" d="M249.672 10.391l2.71-1.54c.929-.528 1.703-.644 2.654-.644 1.784 0 3.44.91 4.333 2.527.536.97.695 1.923.695 3.03v.668c0 1.193-.22 2.264-.919 3.305-.944 1.403-2.489 2.197-4.156 2.197-.29 0-.562-.014-.848-.05-.765-.1-1.413-.287-2.2-.878l-1.726-1.294V13.11l-.543-2.72zm4.869 2.203l2.586-.508a4.042 4.042 0 0 0-1.86-.756 2.16 2.16 0 0 0-.278-.022 3.744 3.744 0 0 0-3.074 1.645 3.254 3.254 0 0 0-.489 1.11c.057.242.155.512.324.818a3.798 3.798 0 0 0 3.286 1.952c.081 0 .19-.007.345-.03.402-.06.824-.185 1.318-.466l-.445-.772h-1.695l.964-1.267-.982-1.704zm8.626 12.314c1.278-.178 2.434-.763 3.633-1.646l-.206-.275-3.463-.396c-.1.86-.286 1.425-.507 1.766l.543.55zm-5.9-7.993l3.014-.962a2.96 2.96 0 0 0 1.485-1.03c.318-.4.476-.874.476-1.586 0-1.54-.464-2.478-1.541-3.253-1.283-.927-3.325-1.458-6.217-1.458-1.353 0-2.709.13-4.07.394-.777.15-1.434.32-1.966.5v11.135c.23-.492.55-.952.963-1.362l1.561-1.55 2.182.338c.625.097 1.105.147 1.414.154l2.698.063v-1.383zm-8.82 7.838v-.044a2.907 2.907 0 0 1-.022-.004 4.6 4.6 0 0 0 .023.048zm2.669 2.408a7.151 7.151 0 0 0 1.847.436h.622l.107-1.724-1.279-1.802c-.503.351-1.199.59-2.14.678l-.464.183 1.062 2.665h.027l3.141-1.234-.244-.344h-3.225v.895c.178.092.36.174.546.247zM272 21.54l-.237 2.04c-.326 2.804-1.302 5.164-3.022 6.947-1.873 1.94-4.403 2.888-7.298 2.888-2 0-3.855-.469-5.485-1.422-1.914.96-4.12 1.422-6.561 1.422-2.428 0-4.562-.545-6.316-1.744-2.167-1.48-3.322-3.774-3.322-6.413V7.617c0-1.475.603-2.759 1.57-3.77.634-.666 1.4-1.193 2.309-1.655 1.414-.72 3.112-1.252 5.116-1.639a30.14 30.14 0 0 1 5.73-.553c4.59 0 8.397.99 11.323 3.105 3.368 2.423 5.124 5.978 5.124 10.232 0 2.053-.487 3.958-1.46 5.634L272 21.54zm-18.064-2.514a.661.661 0 0 0-.007-.001h.007z"/>
        <path fill="#FFF" d="M288.91 21.369a.614.614 0 0 0 .334-.094v-1.7c.842-.573 2.021-1.04 3.538-1.401a19.093 19.093 0 0 1 4.43-.542c.656.673 1.204 1.679 1.643 3.018.44 1.339.672 2.55.697 3.634-.248.498-.666 1.034-1.254 1.607s-1.297 1.102-2.126 1.588c-2.056 1.22-4.415 1.831-7.076 1.831-3.814 0-6.816-1.114-9.008-3.344-2.266-2.255-3.398-5.379-3.398-9.371 0-3.992 1.238-7.129 3.714-9.409a10.819 10.819 0 0 1 3.807-2.307 13.496 13.496 0 0 1 4.569-.776c3.12 0 5.677.76 7.67 2.28 1.993 1.52 2.99 3.395 2.99 5.624 0 1.682-.514 2.925-1.541 3.728-1.028.804-2.42 1.205-4.179 1.205-.966 0-1.938-.24-2.916-.719-.978-.48-1.56-.931-1.745-1.355 0-1.021.018-1.824.055-2.41a.319.319 0 0 0-.13-.019h-.13c-.185 0-.331.053-.436.16-.106.105-.198.326-.279.662-.08.337-.12 1.252-.12 2.747 0 3.576.297 5.363.89 5.363"/>
        <path fill="#FFF" fill-rule="nonzero" d="M293.7 23.643l.023-.013a7.424 7.424 0 0 0 1.045-.714 11.49 11.49 0 0 0-.228-.809 17.053 17.053 0 0 0-1.262.263v1.211l-1.356.839a8.41 8.41 0 0 0 1.778-.777zm1.74-1.413a.42.42 0 0 0 .002-.001l-.002.001zm-11.096.663c-.341-.672-.541-1.38-.68-2.205-.198-1.163-.284-2.693-.284-4.672 0-1.884.046-2.908.241-3.71.255-1.044.608-1.869 1.426-2.675.315-.312.66-.57 1.024-.776a9.038 9.038 0 0 0-.733.222 6.566 6.566 0 0 0-2.32 1.374l-.029.026c-1.544 1.395-2.322 3.332-2.322 6.12 0 2.855.73 4.832 2.127 6.196l.018.017.017.017c.719.719 1.6 1.25 2.687 1.59a4.978 4.978 0 0 1-1.172-1.524zm8.978-12.947l-.174 2.686c.103.017.2.026.293.026.496 0 .888-.05 1.18-.132.083-.024.151-.048.207-.072a2.57 2.57 0 0 0 .025-.381c0-.809-.33-1.418-1.287-2.135-.695-.52-1.54-.9-2.564-1.128l2.32 1.136zm9.392 9.307c.568 1.7.88 3.304.916 4.827l.025 1.063-.482.95c-.492.972-1.204 1.868-2.119 2.743-.85.814-1.839 1.539-2.96 2.184-2.749 1.6-5.876 2.394-9.299 2.394-4.921 0-9.048-1.501-12.112-4.552-3.143-3.08-4.683-7.256-4.683-12.266 0-5.078 1.704-9.322 5.125-12.42a15.251 15.251 0 0 1 5.316-3.165A18.166 18.166 0 0 1 288.478 0c4.03 0 7.517 1.017 10.322 3.117 3.048 2.28 4.72 5.368 4.72 8.956 0 2.02-.51 3.841-1.556 5.325.28.576.529 1.194.75 1.855z"/>
        <path fill="#FFF" d="M312.408 15.87c0-1.242-.055-2.095-.166-2.56-.11-.466-.313-.699-.608-.699a.755.755 0 0 0-.499.186c.025.224.062.522.111.894.05.372.074 1.167.074 2.383v1.21c0 .844-.018 1.459-.056 1.843l-.092.987-.037.447a.754.754 0 0 0 .499.186c.295 0 .497-.233.608-.698.11-.466.166-1.32.166-2.56v-1.62zm-.738 13.44c-2.189 0-4.196-.456-6.022-1.368-1.826-.912-3.299-2.308-4.418-4.189-1.119-1.88-1.678-4.229-1.678-7.046 0-4.083 1.217-7.273 3.652-9.569 2.164-2.023 4.95-3.035 8.356-3.035 3.7 0 6.63 1.158 8.789 3.473 2.158 2.314 3.237 5.358 3.237 9.131 0 4.195-1.156 7.397-3.468 9.606-2.102 1.999-4.919 2.997-8.448 2.997z"/>
        <path fill="#FFF" fill-rule="nonzero" d="M317.02 16.159v1.626c0 1.571-.072 2.687-.285 3.585-.207.865-.566 1.662-1.192 2.38a4.78 4.78 0 0 1-3.616 1.65 5.054 5.054 0 0 1-3.263-1.193l-1.72-1.443.182-2.246c.01-.133.02-.255.038-.461.029-.32.06-.66.098-1.047.02-.213.035-.712.035-1.43v-1.216c0-.568-.005-1.03-.016-1.378-.005-.155-.01-.282-.017-.378-.003-.055-.006-.081-.003-.064a46.855 46.855 0 0 1-.123-.994l-.255-2.321 1.784-1.494a5.055 5.055 0 0 1 3.26-1.19 4.78 4.78 0 0 1 3.615 1.648c.627.718.986 1.516 1.193 2.383.213.896.286 2.012.286 3.583zm-5.093 1.07c.458 0 .908-.09 1.322-.257a3.539 3.539 0 0 0-1.322-.257c-.475 0-.94.09-1.371.257.431.167.896.258 1.371.258zm-.154 3.221l3.986.366.001-.015.001-.015-3.986-.338-.002.002zm-3.444-5.923v-.003.003zm3.635 10.788c2.51 0 4.28-.627 5.54-1.821 1.395-1.33 2.144-3.398 2.144-6.494 0-2.73-.706-4.717-2.087-6.194-1.318-1.41-3.122-2.12-5.708-2.12-2.383 0-4.134.634-5.468 1.877-1.527 1.436-2.309 3.48-2.309 6.437 0 2.086.38 3.677 1.074 4.84.709 1.188 1.578 2.01 2.664 2.551 1.232.614 2.598.924 4.15.924zm0 8.685c-2.856 0-5.532-.606-7.977-1.825-2.592-1.291-4.688-3.274-6.233-5.862-1.559-2.613-2.306-5.74-2.306-9.313 0-5.245 1.67-9.607 5.06-12.796C303.52 1.397 307.376 0 311.853 0c4.866 0 8.963 1.614 11.991 4.854 2.965 3.171 4.432 7.299 4.432 12.146 0 5.33-1.58 9.694-4.848 12.809C320.462 32.62 316.563 34 311.964 34z"/>
        <path fill="#FFF" d="M329.616 28.724c-1.362 0-2.415-.367-3.157-1.102-.743-.735-1.114-1.843-1.114-3.325V7.485c0-.947.936-1.747 2.808-2.4 1.871-.655 3.96-.982 6.268-.982 4.062 0 7.235.997 9.518 2.99 2.454 2.141 3.682 5.336 3.682 9.582 0 3.824-1.188 6.788-3.563 8.892-2.375 2.105-5.636 3.157-9.784 3.157h-4.658zm6.867-12.908c0-1.245-.056-2.102-.166-2.569-.11-.467-.313-.7-.607-.7a.75.75 0 0 0-.497.187c.024.224.061.523.11.896.049.374.074 1.171.074 2.391v1.215c0 .847-.019 1.463-.056 1.849l-.092.99-.036.448a.75.75 0 0 0 .497.187c.294 0 .497-.233.607-.7.11-.467.166-1.324.166-2.569v-1.625z"/>
        <path fill="#FFF" fill-rule="nonzero" d="M340.5 15.824v1.603c0 1.547-.073 2.647-.287 3.53-.206.852-.565 1.638-1.19 2.345a4.804 4.804 0 0 1-3.612 1.625 5.092 5.092 0 0 1-3.26-1.175l-1.718-1.421.181-2.213.02-.228.005-.074.013-.146c.03-.336.062-.67.098-1.037.02-.21.036-.7.036-1.409v-1.197c0-.56-.006-1.014-.017-1.358-.005-.153-.01-.278-.017-.372-.003-.055-.005-.08-.003-.063a45.538 45.538 0 0 1-.123-.979l-.254-2.287 1.782-1.471a5.093 5.093 0 0 1 3.257-1.173c1.4 0 2.7.597 3.61 1.624.627.707.986 1.493 1.193 2.347.213.883.285 1.982.285 3.53zm-5.09 1.055c.458 0 .907-.089 1.32-.253a3.579 3.579 0 0 0-1.32-.254c-.474 0-.938.089-1.37.254.432.164.896.253 1.37.253zm-.153 3.173l3.98.363.003-.019.001-.02-3.982-.327-.002.003zm-3.44-5.834l-.001-.003v.003zm2.146 10.054c3.204 0 5.484-.72 7.027-2.056 1.404-1.218 2.115-2.953 2.115-5.544 0-3.019-.767-4.972-2.211-6.205-1.447-1.235-3.65-1.912-6.782-1.912-1.832 0-3.44.241-4.838.708v14.922l.001.087h4.688zm-4.694 8.556c-2.425 0-4.57-.732-6.19-2.302-1.672-1.618-2.424-3.814-2.424-6.34V7.61c0-1.838.86-3.409 2.24-4.563.936-.783 2.093-1.369 3.497-1.848 2.356-.805 4.934-1.2 7.72-1.2 5.055 0 9.248 1.288 12.402 3.98 3.504 2.992 5.21 7.337 5.21 12.692 0 4.947-1.683 9.056-5.065 11.987-3.244 2.813-7.538 4.169-12.696 4.169h-4.694z"/>
        <path fill="#FFF" d="M357.202 4.69h10.782c.36.596.629 1.244.803 1.945.174.702.262 1.331.262 1.89 0 1.253-.246 2.197-.738 2.83-.493.633-1.18.949-2.065.949h-7.53c-.461 0-.692.18-.692.54v.149c0 .074.012.124.037.149h8.932c.224.385.418.869.58 1.452.15.633.224 1.198.224 1.694 0 1.477-.274 2.631-.822 3.463h-4.055c-1.894 0-3.177.071-3.85.214-.672.143-1.09.264-1.251.363-.163.112-.243.255-.243.428 0 .174.087.31.261.41.648-.211 1.327-.36 2.037-.447.934-.087 1.95-.13 3.046-.13h5.25c.76 1.067 1.14 2.352 1.14 3.853 0 .845-.106 1.651-.317 2.42-.212.77-.53 1.39-.953 1.862h-13.996c-1.545 0-2.784-.372-3.719-1.117-1.021-.794-1.532-1.96-1.532-3.5V6.402c0-.595.685-1.03 2.056-1.303 1.37-.272 3.488-.41 6.353-.41"/>
        <path fill="#FFF" fill-rule="nonzero" d="M364.42 9.273a1.538 1.538 0 0 1 .189-.308c.355-.458.948-.73 1.371-.73h-1.609c.046.232.066.416.066.547 0 .221-.013.386-.03.491h.012zm-.027.068a.566.566 0 0 1 .002-.007l-.002.007zm-11.576.071v15.021c0 .072.003.13.006.175.02.008.043.015.07.023.194.059.472.096.839.096h.895a4.743 4.743 0 0 1-1.707-3.66c0-1.653.822-3.105 2.121-4.001l.095-.066.039-.024-.478-.472a4.362 4.362 0 0 1-1.189-2.092 4.627 4.627 0 0 1-.138-1.142v-.15c0-1.443.603-2.856 1.842-3.825-.925.019-1.727.06-2.395.117zm13.895 8.35v-2.048h-3.7c.027.075.062.182.1.321l3.619-.997v-.024l-3.66.86c.078.326.11.566.11.705 0 .422-.035.75-.09.983a1.064 1.064 0 0 1-.046.152l.025-.041.137.09h3.505zm-6.597 7.579l-.075-.614h-.11l.059.627a22.077 22.077 0 0 1 .126-.013zm7.666-.099v-.515H364.7a4.951 4.951 0 0 1-.02.515h3.101zm-23.678-.809V6.65c0-1.939 1.028-3.485 2.534-4.44.872-.554 1.863-.895 3.033-1.128 1.719-.342 4.094-.496 7.232-.496h13.282l1.27 2.099c.591.974 1.027 2.03 1.307 3.155.255 1.028.39 2.004.39 2.942 0 2.068-.453 3.874-1.54 5.352.185.85.283 1.663.283 2.445 0 .766-.053 1.498-.165 2.194 1.13 1.75 1.685 3.784 1.685 5.997 0 1.23-.157 2.427-.475 3.58-.381 1.387-1.006 2.609-1.91 3.616l-1.3 1.448h-15.997c-2.472 0-4.668-.657-6.435-2.057-2.128-1.667-3.194-4.111-3.194-6.924z"/>
        <path fill="#4C80F1" d="M49.001 8.069v19.23c-.572.497-1.337.913-2.295 1.248-.958.335-2.121.503-3.49.503-1.368 0-2.531-.304-3.49-.912-1.081-.658-1.623-1.589-1.623-2.793V6.114c.572-.496 1.338-.912 2.296-1.247.958-.335 2.114-.503 3.47-.503 1.356 0 2.532.298 3.528.894C48.467 5.94 49 6.878 49 8.068zm1.381 17.202V6.617c0-.646.52-1.182 1.558-1.61 1.039-.429 2.261-.643 3.667-.643.796 0 1.546.096 2.249.289.703.192 1.24.437 1.614.735.51.646.976 1.303 1.4 1.973.422.67 1.374 2.234 2.855 4.692a.594.594 0 0 0 .373-.13c.112-.087.168-.22.168-.4 0-.18-.156-.531-.467-1.053l-2.015-3.462V5.984c.634-.522 1.406-.925 2.314-1.21a9.35 9.35 0 0 1 2.818-.428c1.58 0 2.855.285 3.825.856 1.132.683 1.698 1.75 1.698 3.202v17.63c0 1.067-.51 1.843-1.53 2.327-.871.434-2.034.652-3.49.652-.808 0-1.595-.087-2.36-.261-.765-.174-1.366-.397-1.801-.67a42.848 42.848 0 0 1-2.631-3.798l-1.903-3.165c-.362.05-.542.242-.542.577 0 .211.18.615.542 1.21l2.332 3.76v.987c-1.443.931-3.07 1.397-4.88 1.397s-3.228-.33-4.254-.987c-1.027-.658-1.54-1.588-1.54-2.792zm33.664-3.333c.41-.074.616-.282.616-.623 0-.342-.11-.726-.327-1.155-.218-.428-.538-.834-.961-1.219-1.107-.993-2.606-1.49-4.497-1.49-.933 0-1.804.156-2.612.466-.859-.434-1.543-1.123-2.053-2.066a6.318 6.318 0 0 1-.765-3.053c0-2.855 1.194-5.058 3.583-6.61 2.052-1.327 4.584-1.991 7.595-1.991 2.239 0 4.123.239 5.654.716 1.53.478 2.78 1.09 3.75 1.834.286.82.43 1.67.43 2.55 0 .882-.119 1.682-.355 2.402-.237.72-.579 1.297-1.026 1.731-.423-.31-1.189-.626-2.296-.949-1.107-.323-2.115-.484-3.022-.484-.909 0-1.515.056-1.82.168-.305.111-.457.285-.457.52 0 .113.019.218.056.317.435-.111.995-.167 1.68-.167 2.425 0 4.403.57 5.933 1.712 1.804 1.366 2.706 3.414 2.706 6.144 0 2.408-.977 4.406-2.93 5.994-2.115 1.7-4.957 2.551-8.527 2.551-1.966 0-3.67-.146-5.113-.438a15.337 15.337 0 0 1-4.218-1.535c-.933-1.353-1.4-2.728-1.4-4.124 0-1.396.48-2.553 1.438-3.472.957-.918 2.136-1.378 3.536-1.378s2.544.286 3.433.857c.89.57 1.546 1.502 1.969 2.792zM105.17 4.7h10.767a6.99 6.99 0 0 1 .802 1.946c.174.701.262 1.33.262 1.89 0 1.253-.246 2.196-.738 2.83-.491.632-1.178.948-2.061.948h-7.52c-.46 0-.691.18-.691.54v.15c0 .074.012.124.037.148h8.92c.224.385.417.869.578 1.452.15.633.224 1.198.224 1.695 0 1.477-.273 2.63-.82 3.462h-4.05c-1.891 0-3.172.072-3.844.214-.672.143-1.089.264-1.25.363-.162.112-.243.255-.243.428 0 .174.087.31.261.41.647-.21 1.325-.36 2.034-.447.933-.087 1.947-.13 3.042-.13h5.244c.758 1.067 1.138 2.352 1.138 3.853a9.09 9.09 0 0 1-.317 2.42c-.212.77-.53 1.39-.952 1.862h-13.977c-1.543 0-2.78-.372-3.713-1.117-1.02-.794-1.53-1.96-1.53-3.5V6.413c0-.596.683-1.03 2.052-1.303 1.369-.273 3.483-.41 6.345-.41zm33.066 15.024l3.229 3.295c-.224 1.936-.837 3.425-1.838 4.468-1.002 1.042-2.386 1.564-4.152 1.564-1.332 0-2.489-.317-3.471-.95-1.257-.794-2.196-2.06-2.818-3.798l-.672-1.824c-.522-.012-1.182-.08-1.978-.205-.1.1-.149.236-.149.41 0 .335.504.534 1.512.596l1.063 2.68v1.583c-1.43 1.005-3.266 1.508-5.505 1.508-1.605 0-2.886-.33-3.844-.987-.958-.658-1.437-1.613-1.437-2.867V7.51c0-.546.504-1.076 1.512-1.591 1.008-.515 2.326-.931 3.956-1.248a25.581 25.581 0 0 1 4.889-.474c3.732 0 6.65.763 8.752 2.29 2.214 1.6 3.321 3.853 3.321 6.757 0 1.663-.47 3.088-1.409 4.273a7.284 7.284 0 0 1-3.554 2.467c0 .397.239.595.718.595s1.104-.285 1.875-.856zm-9.628-4.245c.05.038.192.056.429.056a.612.612 0 0 0 .541-.28c.124-.185.187-.49.187-.911v-.67c0-.447-.053-.767-.16-.96-.105-.192-.279-.288-.522-.288-.242 0-.407.025-.494.075.012.062.019.167.019.316v2.662zm28.83-1.266V27.3c-.572.496-1.337.912-2.295 1.247-.958.335-2.121.503-3.49.503-1.369 0-2.531-.304-3.49-.912-1.082-.658-1.623-1.589-1.623-2.793V13.356h-4.348c-.895-1.278-1.343-2.674-1.343-4.189 0-1.03.165-1.927.494-2.69.33-.763.737-1.356 1.223-1.778h19.295c.36.559.659 1.235.895 2.03.237.794.355 1.582.355 2.364 0 1.464-.324 2.54-.97 3.23-.648.689-1.519 1.033-2.613 1.033h-5.468a.701.701 0 0 0-.056.28c0 .223.131.372.392.446.274.087.859.13 1.754.13h1.288zm23.009 8.843c.348 0 .522-.192.522-.577-2.75-1.824-4.849-4.065-6.298-6.72-1.45-2.656-2.261-5.585-2.435-8.788.56-.83 1.396-1.47 2.51-1.917a9.166 9.166 0 0 1 3.443-.67c1.554 0 2.892.304 4.012.912a57.494 57.494 0 0 1 1.716 5.361l-.914 4.022c-.05.186-.075.36-.075.521 0 .422.224.633.672.633.15-.472.498-1.899 1.045-4.282.137-.608.32-1.455.55-2.541.23-1.086.526-2.367.887-3.844 1.144-.546 2.45-.82 3.919-.82 1.779 0 3.197.432 4.254 1.294 1.058.863 1.587 2.107 1.587 3.733 0 2.383-.672 4.704-2.016 6.963-1.058 1.787-2.457 3.456-4.199 5.007v6.144c-1.032.633-1.959 1.052-2.78 1.257-.821.204-1.686.307-2.594.307-1.716 0-3.067-.323-4.05-.968-.982-.645-1.473-1.607-1.473-2.886V21.92c.224.223.51.468.858.735.348.267.635.4.859.4zm27.73 6.255c-2.215 0-4.246-.456-6.094-1.368-1.847-.912-3.337-2.308-4.469-4.189-1.132-1.88-1.698-4.229-1.698-7.046 0-4.083 1.232-7.273 3.695-9.569 2.19-2.023 5.007-3.034 8.453-3.034 3.745 0 6.709 1.157 8.892 3.472 2.184 2.314 3.275 5.358 3.275 9.131 0 4.195-1.17 7.397-3.508 9.606-2.127 1.999-4.976 2.997-8.547 2.997zm.746-13.44c0-1.242-.056-2.095-.168-2.56-.112-.466-.317-.699-.616-.699a.769.769 0 0 0-.504.187c.025.223.062.52.112.893.05.372.075 1.167.075 2.383v1.21c0 .844-.019 1.459-.056 1.843-.038.385-.069.714-.094.987l-.037.447c.15.124.317.186.504.186.299 0 .504-.233.616-.698.112-.466.168-1.32.168-2.56v-1.62zm28.513-11.506c1.493 0 2.786.404 3.881 1.21 1.095.807 1.643 1.955 1.643 3.444V19.37c0 3.153-.965 5.582-2.893 7.288-1.928 1.707-4.594 2.56-7.996 2.56-3.403 0-6.05-.837-7.94-2.513-1.928-1.675-2.892-4.12-2.892-7.335V6.095c1.467-1.166 3.165-1.75 5.094-1.75 1.617 0 2.899.426 3.844 1.276.945.85 1.418 2.138 1.418 3.863v10.853c.137.1.296.149.476.149s.31-.046.392-.14c.08-.093.121-.27.121-.53V9.466c0-.783-.037-1.403-.112-1.863a4.948 4.948 0 0 0-.448-1.377c1.493-1.241 3.297-1.862 5.412-1.862zm26.965 15.359l3.228 3.295c-.224 1.936-.837 3.425-1.838 4.468-1.002 1.042-2.386 1.564-4.152 1.564-1.331 0-2.488-.317-3.471-.95-1.257-.794-2.196-2.06-2.818-3.798l-.672-1.824c-.522-.012-1.182-.08-1.978-.205-.1.1-.149.236-.149.41 0 .335.504.534 1.512.596l1.063 2.68v1.583c-1.43 1.005-3.265 1.508-5.505 1.508-1.604 0-2.886-.33-3.844-.987-.958-.658-1.437-1.613-1.437-2.867V7.51c0-.546.504-1.076 1.512-1.591 1.008-.515 2.326-.931 3.956-1.248a25.581 25.581 0 0 1 4.889-.474c3.732 0 6.65.763 8.752 2.29 2.214 1.6 3.322 3.853 3.322 6.757 0 1.663-.47 3.088-1.41 4.273a7.284 7.284 0 0 1-3.554 2.467c0 .397.24.595.718.595.479 0 1.104-.285 1.876-.856zm-9.63-4.245c.05.038.194.056.43.056a.612.612 0 0 0 .541-.28c.124-.185.187-.49.187-.911v-.67c0-.447-.053-.767-.159-.96-.106-.192-.28-.288-.523-.288-.242 0-.407.025-.494.075.012.062.019.167.019.316v2.662zm34.13 5.827c.125 0 .237-.03.337-.093v-1.694c.846-.57 2.03-1.036 3.555-1.396 1.523-.36 3.007-.54 4.45-.54.66.67 1.21 1.673 1.652 3.007.441 1.334.675 2.54.7 3.62-.25.497-.67 1.03-1.26 1.601-.591.572-1.303 1.099-2.137 1.583-2.065 1.216-4.435 1.825-7.11 1.825-3.831 0-6.848-1.111-9.05-3.333-2.276-2.246-3.415-5.358-3.415-9.336 0-3.978 1.244-7.103 3.732-9.374a10.888 10.888 0 0 1 3.826-2.299 13.664 13.664 0 0 1 4.59-.773c3.135 0 5.704.758 7.707 2.272 2.003 1.514 3.004 3.382 3.004 5.603 0 1.676-.516 2.914-1.548 3.714-1.033.8-2.433 1.201-4.199 1.201-.97 0-1.947-.239-2.93-.717-.982-.477-1.567-.927-1.754-1.35 0-1.017.019-1.817.056-2.4a.323.323 0 0 0-.13-.02h-.131c-.187 0-.333.054-.438.159-.106.105-.2.326-.28.66-.082.336-.122 1.248-.122 2.737 0 3.563.299 5.343.896 5.343zm23.27 8.005c-2.214 0-4.245-.456-6.092-1.368-1.848-.912-3.337-2.308-4.47-4.189-1.131-1.88-1.697-4.229-1.697-7.046 0-4.083 1.231-7.273 3.694-9.569 2.19-2.023 5.008-3.034 8.454-3.034 3.744 0 6.708 1.157 8.891 3.472 2.184 2.314 3.276 5.358 3.276 9.131 0 4.195-1.17 7.397-3.509 9.606-2.127 1.999-4.976 2.997-8.546 2.997zm17.392-.577c-1.38 0-2.447-.366-3.2-1.098-.753-.732-1.13-1.837-1.13-3.314V7.566c0-.943.95-1.74 2.847-2.392 1.897-.651 4.015-.977 6.354-.977 4.117 0 7.333.993 9.647 2.978 2.488 2.135 3.732 5.319 3.732 9.55 0 3.81-1.203 6.765-3.61 8.862-2.408 2.098-5.714 3.146-9.919 3.146h-4.72zM312.918 15.87c0-1.24-.056-2.094-.168-2.56-.112-.465-.317-.698-.616-.698a.769.769 0 0 0-.503.187c.024.223.062.52.111.893.05.372.075 1.167.075 2.383v1.21c0 .844-.018 1.459-.056 1.843l-.093.987-.037.447c.149.124.317.186.503.186.3 0 .504-.233.616-.698.112-.466.168-1.32.168-2.56v-1.62zm23.606 0c0-1.24-.056-2.094-.168-2.56-.112-.465-.318-.698-.616-.698a.769.769 0 0 0-.504.187c.025.223.062.52.112.893.05.372.075 1.167.075 2.383v1.21c0 .844-.019 1.459-.056 1.843-.038.385-.069.714-.094.987l-.037.447c.15.124.317.186.504.186.298 0 .504-.233.616-.698.112-.466.168-1.32.168-2.56v-1.62zM357.218 4.7h10.768a6.99 6.99 0 0 1 .802 1.946c.174.701.261 1.33.261 1.89 0 1.253-.246 2.196-.737 2.83-.492.632-1.179.948-2.062.948h-7.52c-.46 0-.69.18-.69.54v.15c0 .074.012.124.037.148h8.92c.223.385.416.869.578 1.452.15.633.224 1.198.224 1.695 0 1.477-.274 2.63-.821 3.462h-4.05c-1.89 0-3.172.072-3.844.214-.671.143-1.088.264-1.25.363-.162.112-.242.255-.242.428 0 .174.086.31.26.41.647-.21 1.326-.36 2.035-.447.933-.087 1.947-.13 3.042-.13h5.243c.759 1.067 1.138 2.352 1.138 3.853a9.09 9.09 0 0 1-.317 2.42c-.212.77-.529 1.39-.952 1.862h-13.976c-1.543 0-2.78-.372-3.714-1.117-1.02-.794-1.53-1.96-1.53-3.5V6.413c0-.596.684-1.03 2.053-1.303 1.368-.273 3.483-.41 6.344-.41z"/>
    </g>
</svg>
